<?xml version="1.0" encoding="utf-8"?>
<!-- Generator: Adobe Illustrator 23.0.2, SVG Export Plug-In . SVG Version: 6.00 Build 0)  -->
<svg version="1.1" id="Warstwa_1" xmlns="http://www.w3.org/2000/svg" xmlns:xlink="http://www.w3.org/1999/xlink" x="0px"
     y="0px"
     viewBox="0 0 115.3 19.5" style="enable-background:new 0 0 115.3 19.5;" xml:space="preserve">
<g>
	<path d="M0,0.3h13.6l0,3.5H4.3v4.6h8.5V12H4.3v7.2H0V0.3z"/>
    <path d="M14.2,0.3H30v3.6h-5.8v15.3H20V3.9h-5.8V0.3z"/>
    <path d="M45.2,1.3c1.5,0.8,2.8,2,3.7,3.5c0.9,1.5,1.3,3.1,1.3,5c0,1.8-0.4,3.5-1.3,5c-0.9,1.5-2.1,2.7-3.7,3.5
		c-1.5,0.9-3.3,1.3-5.2,1.3c-1.9,0-3.6-0.4-5.2-1.3c-1.5-0.9-2.8-2-3.7-3.5s-1.3-3.1-1.3-5c0-1.8,0.4-3.5,1.3-5
		c0.9-1.5,2.1-2.6,3.6-3.5C36.4,0.4,38.2,0,40.1,0C42,0,43.7,0.4,45.2,1.3z M37.2,4.5c-0.9,0.5-1.6,1.3-2.1,2.2
		c-0.5,0.9-0.8,1.9-0.8,3c0,1.1,0.3,2.1,0.8,3.1c0.5,0.9,1.2,1.6,2.1,2.2c0.9,0.5,1.9,0.8,2.9,0.8c1,0,2-0.3,2.9-0.8
		c0.9-0.5,1.6-1.3,2.1-2.2c0.5-0.9,0.8-1.9,0.8-3.1c0-1.1-0.3-2.1-0.8-3c-0.5-0.9-1.2-1.6-2.1-2.2c-0.9-0.5-1.8-0.8-2.9-0.8
		C39.1,3.7,38.1,4,37.2,4.5z"/>
    <path d="M73.3,19.2l-1.5-3.7h-8.7l-1.5,3.7h-4.4l8.2-18.9h4.4l8.1,18.9H73.3z M64.5,12.1h6l-3-7.3L64.5,12.1z"/>
    <path d="M76,0.3h15.8v3.6H86v15.3h-4.3V3.9H76V0.3z"/>
    <path d="M94.1,0.3h4.8l5.9,11.6l5.8-11.6h4.7v18.9h-3.8V6.4l-5.4,10.9h-2.8L97.9,6.4v12.8h-3.8V0.3z"/>
</g>
</svg>
