<?xml version="1.0" encoding="utf-8"?>
<!-- Generator: Adobe Illustrator 23.0.0, SVG Export Plug-In . SVG Version: 6.00 Build 0)  -->
<svg version="1.1" id="Warstwa_1" xmlns="http://www.w3.org/2000/svg" xmlns:xlink="http://www.w3.org/1999/xlink" x="0px" y="0px"
	 viewBox="0 0 486.4 486.4" style="enable-background:new 0 0 486.4 486.4;" xml:space="preserve">
<style type="text/css">
	.white{fill:#FFFFFF;stroke:#000000;stroke-width:1.0624;stroke-miterlimit:10;}
</style>
<rect x="110.4" y="94.2" class="white" width="265.6" height="299.8"/>
<g>
	<g>
		<g>
			<path d="M243.2,0C108.9,0,0,108.9,0,243.2s108.9,243.2,243.2,243.2s243.2-108.9,243.2-243.2C486.4,108.9,377.5,0,243.2,0z
				 M306.1,243.2l-39.9,0l0,145.9h-54.7V243.2H175v-50.3l36.5,0l-0.1-29.6c0-41,11.1-66,59.4-66h40.2v50.3h-25.2
				c-18.8,0-19.7,7-19.7,20.1l-0.1,25.2h45.2L306.1,243.2z"/>
		</g>
	</g>
</g>
</svg>
