<?xml version="1.0" encoding="utf-8"?>
<!-- Generator: Adobe Illustrator 23.0.2, SVG Export Plug-In . SVG Version: 6.00 Build 0)  -->
<svg version="1.1" id="Warstwa_1" xmlns="http://www.w3.org/2000/svg" xmlns:xlink="http://www.w3.org/1999/xlink" x="0px" y="0px"
	 viewBox="0 0 28.5 29.2" style="enable-background:new 0 0 28.5 29.2;" xml:space="preserve">
<style type="text/css">

</style>
<g>
	<path class="st0" d="M17.9,19.1c-0.2-0.3-0.6-0.4-0.9-0.4c-0.7,0-1.2,0.2-1.6,0.5c-0.4,0.4-0.7,0.6-0.9,0.6l-0.2,0.1v0.2
		c-0.2,0.7-0.3,1.2-0.5,1.6l-0.9,2.2l0.6-0.1c0.2,0,0.4-0.1,0.6-0.1c3.6-0.8,4.2-2.7,4.2-3.5C18.3,19.6,18.1,19.3,17.9,19.1z
		 M13.9,23l0.5-1.2c0.2-0.4,0.3-0.9,0.5-1.5c0.3-0.1,0.6-0.4,1-0.7c0.2-0.2,0.6-0.4,1.1-0.3c0.1,0,0.3,0.1,0.4,0.2
		c0.1,0.2,0.2,0.4,0.2,0.6C17.5,20.8,17.1,22.3,13.9,23z"/>
	<path class="st0" d="M19.6,20.4c0-2.2-1.5-2.8-2.3-2.9c-0.6-0.1-1.3,0-1.6,0.1c-0.1,0-0.2,0-0.2,0c0.1-0.5,0.1-0.9,0.2-1.2
		c0-0.4,0-0.7-0.3-0.9s-0.6-0.2-0.6-0.2H1c0,0-0.4-0.1-0.7,0.2C0.1,15.7,0,16,0,16.4c0.1,0.9,0.5,4,1.2,5.4l0.3,0.8
		c0.7,1.6,1.9,4.6,2,5.1c0.2,1,0.6,1.3,4.3,1.4c3.6-0.1,4-0.4,4.2-1.4c0-0.2,0.2-0.7,0.9-2.4c0.3-0.2,0.7-0.4,1.6-0.6
		C17.6,24,19.6,22.3,19.6,20.4z M12.5,24.9L12.5,24.9L12.4,25c-0.8,1.9-0.9,2.4-1,2.6c-0.1,0.5-0.2,0.8-3.6,0.8
		c-3.4-0.1-3.5-0.4-3.6-0.8c-0.1-0.5-1.1-2.9-2.1-5.2l-0.3-0.8c-0.6-1.4-1-4.4-1.1-5.3c0-0.2,0-0.3,0-0.4c0,0,0,0,0.1,0
		c0,0,0,0,0.1,0h13.9h0.1c0,0,0.1,0.1,0,0.4c0,0.3-0.1,0.7-0.2,1.3v0.1v0.1c0.1,0.4,0.3,0.5,0.6,0.5c0.1,0,0.3,0,0.4-0.1
		c0.4-0.1,0.9-0.2,1.4-0.1c1.2,0.2,1.8,0.9,1.8,2.2c0,1.6-1.8,3.1-4.5,3.8C13.5,24.4,12.9,24.6,12.5,24.9z"/>
	<path class="st0" d="M27.1,6.6V6.2H14.4v0.4c0,2.5,0.7,4.9,1.9,6c1.1,1,2.4,1.7,3.7,1.7c0.2,0,0.4,0,0.7,0c0.3,0,0.5,0,0.7,0
		c1.3-0.1,2.6-0.7,3.7-1.7C26.4,11.4,27.1,9.1,27.1,6.6z M21.4,13.6c-0.3,0-1,0-1.3,0c-1.1-0.1-2.3-0.6-3.2-1.5
		c-1-1-1.7-2.9-1.7-5.1h11.2c0,2.2-0.7,4.1-1.7,5.1C23.7,13,22.6,13.5,21.4,13.6z"/>
	<path class="st0" d="M21.1,15.8c0.2,0,0.3,0,0.4,0c1.7-0.1,3.3-0.8,4.6-2.1c3-2.9,3.2-10.2,0.4-13.3L26.2,0H15.3L15,0.4
		c-2.8,3.1-2.6,10.4,0.4,13.3c1.3,1.3,3,2,4.6,2.1c0.1,0,0.2,0,0.4,0v12.7h-5.9v0.8h12.6v-0.8h-5.9V15.8H21.1z M20,15
		c-1.5-0.1-3-0.8-4.1-1.9c-2.7-2.6-2.9-9.4-0.3-12.2l0.1-0.1h10.2L26,0.9c2.6,2.8,2.4,9.6-0.3,12.2c-1.2,1.1-2.7,1.8-4.1,1.9l0,0
		C21.1,15,20.4,15,20,15z"/>
</g>
</svg>
