<?xml version="1.0" encoding="utf-8"?>
<!-- Generator: Adobe Illustrator 23.0.1, SVG Export Plug-In . SVG Version: 6.00 Build 0)  -->
<svg version="1.1" id="Warstwa_1" xmlns="http://www.w3.org/2000/svg" xmlns:xlink="http://www.w3.org/1999/xlink" x="0px"
     y="0px"
     viewBox="0 0 28.1 28.1" style="enable-background:new 0 0 28.1 28.1;" xml:space="preserve">
<path d="M5.4,14.4c-0.1-0.1-0.1-0.2-0.1-0.3s0-0.2,0.1-0.3l4.6-4.6C10,9.1,10.2,9,10.3,9c0.1,0,0.2,0,0.3,0.1l3.5,3.5
	L21.6,5c0.2-0.2,0.5-0.2,0.6,0c0.2,0.2,0.2,0.5,0,0.6l-7.9,7.9c-0.2,0.2-0.5,0.2-0.6,0l-3.5-3.5L6,14.4C5.9,14.5,5.6,14.5,5.4,14.4z
	 M28.1,0.5c0,0.3-0.2,0.5-0.5,0.5h-2v18c0,0.3-0.2,0.5-0.5,0.5h-9.7l7.9,7.9c0.2,0.2,0.2,0.5,0,0.6c-0.2,0.2-0.5,0.2-0.6,0l-8.2-8.2
	v7.9c0,0.3-0.2,0.5-0.5,0.5s-0.5-0.2-0.5-0.5v-7.9L5.4,28c-0.2,0.2-0.5,0.2-0.6,0c-0.2-0.2-0.2-0.5,0-0.6l7.9-7.9H2.9
	c-0.3,0-0.5-0.2-0.5-0.5v-18h-2C0.2,0.9,0,0.7,0,0.5S0.2,0,0.5,0h27.2C27.9,0,28.1,0.2,28.1,0.5z M24.7,0.9H3.4v17.6h21.3V0.9z"/>
</svg>
