<?xml version="1.0" encoding="utf-8"?>
<!-- Generator: Adobe Illustrator 23.0.1, SVG Export Plug-In . SVG Version: 6.00 Build 0)  -->
<svg version="1.1" id="Layer_1" xmlns="http://www.w3.org/2000/svg" xmlns:xlink="http://www.w3.org/1999/xlink" x="0px" y="0px"
	 viewBox="0 0 569.1 455.7" style="enable-background:new 0 0 569.1 455.7;" xml:space="preserve">
<style type="text/css">
	.st0{fill:#BD9D57;}
	.st1{fill:#FFFFFF;}
</style>
<polygon class="st0" points="113.4,-0.2 113.4,-0.2 0,-0.2 0,455.5 117.5,455.5 117.5,455.5 569.1,455.5 569.1,-0.2 "/>
<path class="st1" d="M430,120.3H252.5c-34.8,0-63,28.2-63,63V272c0,34.8,28.2,63,63,63h177.4c34.8,0,63-28.2,63-63v-88.7
	C493,148.5,464.8,120.3,430,120.3z M387.4,232l-83,39.6c-2.2,1.1-4.8-0.6-4.8-3V187c0-2.5,2.6-4.1,4.8-3l83,42.1
	C389.9,227.2,389.8,230.8,387.4,232z"/>
</svg>
