<?xml version="1.0" encoding="utf-8"?>
<!-- Generator: Adobe Illustrator 23.0.1, SVG Export Plug-In . SVG Version: 6.00 Build 0)  -->
<svg version="1.1" id="Warstwa_3" xmlns="http://www.w3.org/2000/svg" xmlns:xlink="http://www.w3.org/1999/xlink" x="0px"
     y="0px"
     viewBox="0 0 718.6 118.5" style="enable-background:new 0 0 718.6 118.5;" xml:space="preserve">
<g>
	<g>
		<path d="M505,86c-14,14-36.2,14.7-51.1,2.3c-0.9-0.7-1.7-1.5-2.5-2.3c-14.8-14.8-14.8-38.8,0-53.6
			c0.7-0.7,1.4-1.4,2.2-2c7.1-6.1,15.8-9.1,24.6-9.1c9.7,0,19.4,3.7,26.8,11.1c2.6,2.6,4.8,5.6,6.5,8.7l16.7-13.7
			c-2.3-3.6-5-7-8.1-10.1C508.9,6.2,494,0,478.2,0c-15.6,0-30.2,6-41.3,16.8c-0.2,0.2-0.4,0.4-0.6,0.6
			c-11.2,11.2-17.4,26.1-17.4,41.9s6.2,30.7,17.4,41.9c11.2,11.2,26.1,17.4,41.9,17.4c15.8,0,30.7-6.2,41.9-17.4
			c3-3,5.6-6.3,7.9-9.7l-16.7-13.7C509.6,80.7,507.5,83.5,505,86z"/>
	</g>
    <g>
		<path class="st0" d="M499.6,47.2h-22v12.1h8.2l12.2,10h-20.3v15c-13.8,0-25-11.2-25-25s11.2-25,25-25
			C487.1,34.3,495.3,39.5,499.6,47.2z"/>
	</g>
    <path class="st0" d="M0,102.9V6.2h68.5v18.1H20.6v20.3h46.8v18.1H20.6v40.2H0z"/>
    <path class="st0" d="M126.8,102.9v-8.8c-4.8,5.2-13.2,10.6-24.7,10.6c-15.4,0-22.6-8.4-22.6-22V32.9h18.4v42.5
		c0,9.7,5.1,12.9,12.9,12.9c7.1,0,12.8-3.9,16-8V32.9h18.4v70.1H126.8z"/>
    <path class="st0" d="M164.3,85.4V49h-11.6V32.9h11.6V13.7h18.4v19.1h14.2V49h-14.2v31.5c0,4.5,2.3,7.8,6.4,7.8c2.8,0,5.4-1,6.4-2.2
		l3.9,14.1c-2.8,2.5-7.7,4.5-15.4,4.5C171.1,104.7,164.3,98,164.3,85.4z"/>
    <path class="st0" d="M253.9,102.9v-8.8c-4.8,5.2-13.2,10.6-24.7,10.6c-15.4,0-22.6-8.4-22.6-22V32.9h18.4v42.5
		c0,9.7,5.1,12.9,12.9,12.9c7.1,0,12.8-3.9,16-8V32.9h18.4v70.1H253.9z"/>
    <path class="st0" d="M287.7,102.9V32.9h18.4v9.4c5.1-6.1,13.6-11.2,22.3-11.2v18c-1.3-0.3-2.9-0.4-5.1-0.4c-6.1,0-14.2,3.5-17.3,8
		v46.3H287.7z"/>
    <path class="st0" d="M332.5,67.8c0-19.9,13.9-36.7,37-36.7c23.2,0,37.1,16.8,37.1,36.7c0,19.9-13.9,36.8-37.1,36.8
		C346.5,104.7,332.5,87.7,332.5,67.8z M387.5,67.8c0-10.9-6.4-20.3-18-20.3c-11.5,0-17.8,9.4-17.8,20.3c0,11,6.4,20.4,17.8,20.4
		C381.1,88.3,387.5,78.8,387.5,67.8z"/>
    <path class="st0" d="M534,68.6c0-19.9,13.9-36.7,37-36.7c23.2,0,37.1,16.8,37.1,36.7c0,19.9-13.9,36.8-37.1,36.8
		C548,105.5,534,88.5,534,68.6z M589,68.6c0-10.9-6.4-20.3-18-20.3c-11.5,0-17.8,9.4-17.8,20.3c0,11,6.4,20.4,17.8,20.4
		C582.6,89.1,589,79.6,589,68.6z"/>
    <path class="st0" d="M617.3,16.8c0-6.1,4.9-10.9,10.9-10.9c6.1,0,11,4.8,11,10.9s-4.9,11-11,11C622.2,27.9,617.3,22.9,617.3,16.8z
		 M619,105.5V35.4h18.4v70.1H619z"/>
    <path class="st0" d="M700.1,105.5V63.1c0-9.7-5.1-13.1-12.9-13.1c-7.3,0-12.8,4.1-16,8.1v47.3h-18.4V35.4h18.4v9
		c4.5-5.2,13.2-10.7,24.5-10.7c15.5,0,22.9,8.7,22.9,22.3v49.5H700.1z"/>
</g>
</svg>
