<?xml version="1.0" encoding="utf-8"?>
<!-- Generator: Adobe Illustrator 23.0.1, SVG Export Plug-In . SVG Version: 6.00 Build 0)  -->
<svg version="1.1" id="Warstwa_1" xmlns="http://www.w3.org/2000/svg" xmlns:xlink="http://www.w3.org/1999/xlink" x="0px" y="0px"
	 viewBox="0 0 155.6 28.8" style="enable-background:new 0 0 155.6 28.8;" xml:space="preserve">
<style type="text/css">
	.st0{fill:#646363;}
	.st1{fill:#BD9E57;}
</style>
<title>logotypy</title>
<g>
	<path class="st0" d="M32.1,6v3.8h4.8v1.9h-4.8v5.2h-2.4V4.1h8V6H32.1z"/>
	<path class="st0" d="M49.8,4.1v12.7h-1.2c-0.2,0-0.3,0-0.5-0.1c-0.1-0.1-0.3-0.2-0.4-0.3l-6.7-8.5c0,0.4,0,0.7,0,1.1v7.8h-2V4.1
		h1.5h0.2c0.1,0,0.1,0.1,0.2,0.1C41,4.3,41,4.4,41.1,4.4l6.7,8.5c0-0.2,0-0.4,0-0.6s0-0.4,0-0.6V4.1H49.8z"/>
	<path class="st0" d="M53.6,7.4C53.7,6.9,54,6.4,54.2,6c0.2-0.4,0.5-0.7,0.9-1c0.3-0.3,0.7-0.5,1.1-0.6c0.4-0.2,0.9-0.2,1.3-0.2
		c0.3,0,0.5,0,0.8,0.1c0.2,0,0.5,0.1,0.7,0.2l-0.1,0.8c0,0.1-0.1,0.2-0.2,0.2c-0.2,0-0.3,0-0.5-0.1c-0.3-0.1-0.5-0.1-0.8-0.1
		c-0.4,0-0.8,0.1-1.2,0.2c-0.4,0.1-0.7,0.4-1,0.7c-0.3,0.3-0.6,0.7-0.8,1.1c-0.2,0.5-0.4,1-0.6,1.5v8.1h-1.2V4.3h0.6
		c0.1,0,0.2,0,0.3,0.1c0.1,0.1,0.1,0.2,0.1,0.3L53.6,7.4z"/>
	<path class="st0" d="M60.8,10.1v0.2c0,0.8,0.1,1.7,0.3,2.5c0.2,0.7,0.5,1.3,0.9,1.8c0.4,0.5,0.9,0.8,1.5,1.1
		c0.6,0.3,1.3,0.4,1.9,0.4c0.6,0,1.1-0.1,1.6-0.2c0.4-0.1,0.8-0.3,1.2-0.5c0.3-0.1,0.5-0.3,0.8-0.5c0.1-0.1,0.2-0.2,0.4-0.2
		c0.1,0,0.2,0,0.2,0.1l0.3,0.4c-0.2,0.3-0.5,0.5-0.8,0.7c-0.3,0.2-0.7,0.4-1.1,0.6c-0.4,0.2-0.9,0.3-1.3,0.4
		c-0.5,0.1-0.9,0.1-1.4,0.1c-0.8,0-1.6-0.1-2.3-0.4c-0.7-0.3-1.3-0.7-1.8-1.3c-0.5-0.6-0.9-1.3-1.2-2.1c-0.3-0.9-0.4-1.9-0.4-2.8
		c0-0.8,0.1-1.7,0.4-2.5c0.2-0.7,0.6-1.4,1.1-2c0.5-0.6,1.1-1,1.8-1.3c0.8-0.3,1.6-0.5,2.4-0.5c0.7,0,1.3,0.1,1.9,0.4
		c0.6,0.2,1.1,0.6,1.6,1.1c0.4,0.5,0.8,1.1,1,1.7c0.3,0.7,0.4,1.5,0.4,2.3c0,0.1,0,0.3-0.1,0.4C70.1,10,70,10.1,69.9,10L60.8,10.1z
		 M69.2,9.3c0-0.6-0.1-1.2-0.3-1.8c-0.2-0.5-0.4-1-0.8-1.3c-0.3-0.4-0.8-0.7-1.2-0.8c-0.5-0.2-1-0.3-1.6-0.3c-0.6,0-1.2,0.1-1.7,0.3
		c-0.5,0.2-0.9,0.5-1.3,0.9c-0.4,0.4-0.7,0.9-0.9,1.4c-0.2,0.6-0.4,1.2-0.4,1.8H69.2z"/>
	<path class="st0" d="M79.9,5.9c-0.1,0.1-0.2,0.2-0.3,0.2c-0.1,0-0.3-0.1-0.4-0.2c-0.2-0.1-0.4-0.3-0.6-0.4
		c-0.3-0.1-0.6-0.3-0.9-0.3c-0.4-0.1-0.8-0.2-1.3-0.2c-0.4,0-0.8,0.1-1.2,0.2c-0.3,0.1-0.7,0.3-0.9,0.5c-0.3,0.2-0.5,0.5-0.6,0.8
		c-0.1,0.3-0.2,0.6-0.2,0.9c0,0.4,0.1,0.7,0.3,1c0.2,0.3,0.5,0.5,0.8,0.7c0.4,0.2,0.7,0.4,1.1,0.5L77,10c0.4,0.1,0.9,0.3,1.3,0.4
		c0.4,0.2,0.8,0.4,1.1,0.6c0.3,0.2,0.6,0.5,0.8,0.9c0.2,0.4,0.3,0.8,0.3,1.3c0,0.5-0.1,1-0.3,1.5c-0.2,0.5-0.5,0.9-0.9,1.2
		c-0.4,0.4-0.9,0.6-1.4,0.8c-0.6,0.2-1.2,0.3-1.9,0.3c-0.8,0-1.6-0.1-2.3-0.4c-0.6-0.3-1.2-0.6-1.7-1.1l0.3-0.4
		c0-0.1,0.1-0.1,0.1-0.1c0.1,0,0.1,0,0.2,0c0.1,0,0.3,0.1,0.4,0.2c0.2,0.2,0.4,0.3,0.6,0.4c0.3,0.2,0.7,0.3,1,0.4
		c0.5,0.1,0.9,0.2,1.4,0.2c0.5,0,0.9-0.1,1.4-0.2c0.4-0.1,0.7-0.3,1-0.6c0.3-0.2,0.5-0.5,0.6-0.9c0.1-0.3,0.2-0.7,0.2-1.1
		c0-0.4-0.1-0.7-0.3-1.1c-0.2-0.3-0.5-0.5-0.8-0.7c-0.4-0.2-0.7-0.4-1.1-0.5l-1.3-0.4c-0.4-0.1-0.9-0.3-1.3-0.4
		c-0.4-0.1-0.8-0.3-1.1-0.6c-0.3-0.2-0.6-0.5-0.8-0.9c-0.2-0.4-0.3-0.8-0.3-1.3c0-0.4,0.1-0.9,0.3-1.3c0.2-0.4,0.5-0.8,0.8-1.1
		c0.4-0.3,0.8-0.6,1.3-0.7c0.6-0.2,1.1-0.3,1.7-0.3c0.7,0,1.4,0.1,2,0.3c0.6,0.2,1.2,0.6,1.6,1L79.9,5.9z"/>
	<path class="st0" d="M86.8,17c-0.7,0.1-1.5-0.2-2-0.7c-0.5-0.6-0.8-1.4-0.7-2.2V5.6h-1.8c-0.1,0-0.2,0-0.2-0.1
		C82,5.5,82,5.4,82,5.3V4.9l2.1-0.2l0.3-4.5c0-0.1,0.1-0.1,0.1-0.2C84.6,0,84.7,0,84.8,0h0.6v4.7h3.9v0.9h-3.9v8.5
		c0,0.3,0,0.6,0.1,0.9c0.1,0.2,0.2,0.4,0.4,0.6c0.2,0.2,0.3,0.3,0.6,0.4c0.2,0.1,0.4,0.1,0.7,0.1c0.3,0,0.5,0,0.8-0.1
		c0.2-0.1,0.4-0.2,0.6-0.3c0.1-0.1,0.3-0.2,0.4-0.3c0.1-0.1,0.1-0.1,0.2-0.1c0.1,0,0.2,0.1,0.2,0.1l0.3,0.5
		c-0.3,0.4-0.8,0.7-1.2,0.9C87.9,16.9,87.4,17,86.8,17z"/>
	<path class="st0" d="M91.6,6.1c0.6-0.6,1.3-1.1,2.1-1.5c0.8-0.3,1.6-0.5,2.4-0.5c0.6,0,1.2,0.1,1.8,0.3c0.5,0.2,0.9,0.5,1.2,0.9
		c0.3,0.4,0.6,0.9,0.8,1.4c0.2,0.6,0.3,1.3,0.2,1.9v8.1h-0.5c-0.2,0-0.4-0.1-0.5-0.4l-0.1-1.6c-0.3,0.3-0.6,0.6-1,0.9
		c-0.3,0.3-0.7,0.5-1.1,0.7c-0.4,0.2-0.8,0.3-1.2,0.4c-0.5,0.1-0.9,0.2-1.4,0.1c-0.4,0-0.8-0.1-1.2-0.2c-0.4-0.1-0.8-0.3-1.1-0.6
		c-0.3-0.3-0.6-0.6-0.8-1c-0.2-0.5-0.3-1-0.3-1.5c0-0.5,0.2-1,0.5-1.5c0.4-0.5,0.9-0.9,1.4-1.2c0.8-0.4,1.6-0.6,2.5-0.8
		c1.2-0.2,2.4-0.3,3.6-0.4V8.7c0.1-0.9-0.2-1.9-0.7-2.7c-0.6-0.6-1.4-1-2.2-0.9c-0.5,0-1,0.1-1.5,0.2c-0.4,0.1-0.7,0.3-1.1,0.6
		c-0.3,0.2-0.5,0.3-0.7,0.6c-0.1,0.1-0.3,0.2-0.5,0.2c-0.1,0-0.2,0-0.2-0.1c-0.1,0-0.1-0.1-0.1-0.2L91.6,6.1z M99,10.8
		c-1,0-2.1,0.1-3.1,0.3c-0.7,0.1-1.4,0.3-2.1,0.6c-0.5,0.2-0.9,0.5-1.2,0.9c-0.3,0.3-0.4,0.8-0.4,1.2c0,0.4,0.1,0.7,0.2,1.1
		c0.1,0.3,0.3,0.5,0.6,0.8c0.2,0.2,0.5,0.3,0.8,0.4c0.3,0.1,0.6,0.1,0.9,0.1c0.5,0,0.9,0,1.3-0.1c0.4-0.1,0.8-0.3,1.1-0.4
		c0.4-0.2,0.7-0.4,1-0.7c0.3-0.3,0.6-0.6,0.9-0.9L99,10.8z"/>
	<path class="st0" d="M113.2,4.3v12.5h-0.7c-0.2,0-0.3-0.1-0.4-0.3c0,0,0,0,0,0l-0.1-1.9c-0.5,0.7-1.2,1.3-2,1.7
		c-0.8,0.4-1.6,0.7-2.5,0.6c-0.6,0-1.2-0.1-1.8-0.3c-0.5-0.2-0.9-0.5-1.3-0.9c-0.4-0.4-0.6-0.9-0.8-1.5c-0.2-0.6-0.3-1.3-0.3-2v-8
		h1.2v8c-0.1,1,0.2,2,0.8,2.8c0.6,0.7,1.5,1.1,2.4,1c0.8,0,1.6-0.2,2.3-0.6c0.7-0.4,1.4-1,1.9-1.7V4.3H113.2z"/>
	<path class="st0" d="M117.7,7.4c0.2-0.5,0.4-0.9,0.7-1.4c0.2-0.4,0.5-0.7,0.9-1c0.7-0.6,1.5-0.9,2.4-0.8c0.3,0,0.5,0,0.8,0.1
		c0.2,0,0.5,0.1,0.7,0.2L123,5.3c0,0.1-0.1,0.2-0.2,0.2c-0.2,0-0.3,0-0.5-0.1c-0.3-0.1-0.5-0.1-0.8-0.1c-0.4,0-0.9,0.1-1.3,0.2
		c-0.4,0.1-0.7,0.4-1,0.7c-0.3,0.3-0.6,0.7-0.8,1.1c-0.2,0.5-0.4,1-0.6,1.5v8.1h-1.2V4.3h0.6c0.1,0,0.2,0,0.3,0.1
		c0.1,0.1,0.1,0.2,0.1,0.3L117.7,7.4z"/>
	<path class="st0" d="M124.7,6.1c0.6-0.6,1.3-1.1,2.1-1.5c0.8-0.3,1.6-0.5,2.5-0.5c0.6,0,1.2,0.1,1.8,0.3c0.5,0.2,0.9,0.5,1.2,0.9
		c0.3,0.4,0.6,0.9,0.8,1.4c0.2,0.6,0.3,1.3,0.2,1.9v8.1h-0.5c-0.2,0-0.4-0.1-0.5-0.4l-0.2-1.6c-0.3,0.3-0.6,0.6-1,0.9
		c-0.3,0.3-0.7,0.5-1.1,0.7c-0.4,0.2-0.8,0.3-1.2,0.4c-0.5,0.1-0.9,0.2-1.4,0.1c-0.4,0-0.8-0.1-1.2-0.2c-0.4-0.1-0.8-0.3-1.1-0.6
		c-0.3-0.3-0.6-0.6-0.8-1c-0.2-0.5-0.3-1-0.3-1.5c0-0.5,0.2-1,0.5-1.5c0.4-0.5,0.9-0.9,1.4-1.2c0.8-0.4,1.6-0.6,2.5-0.8
		c1.2-0.2,2.4-0.3,3.6-0.4V8.7c0.1-0.9-0.2-1.9-0.7-2.7c-0.6-0.6-1.4-1-2.2-0.9c-0.5,0-1,0.1-1.5,0.2c-0.4,0.1-0.7,0.3-1.1,0.6
		c-0.3,0.2-0.5,0.4-0.7,0.6c-0.1,0.1-0.3,0.2-0.5,0.2c-0.1,0-0.2,0-0.2-0.1c-0.1,0-0.1-0.1-0.1-0.2L124.7,6.1z M132.1,10.8
		c-1,0-2.1,0.1-3.1,0.3c-0.7,0.1-1.4,0.3-2.1,0.6c-0.5,0.2-0.9,0.5-1.2,0.9c-0.3,0.3-0.4,0.8-0.4,1.2c0,0.4,0.1,0.7,0.2,1.1
		c0.1,0.3,0.3,0.5,0.5,0.8c0.2,0.2,0.5,0.3,0.8,0.4c0.3,0.1,0.6,0.1,0.9,0.1c0.4,0,0.9,0,1.3-0.1c0.4-0.1,0.8-0.2,1.1-0.4
		c0.4-0.2,0.7-0.4,1-0.7c0.3-0.3,0.6-0.6,0.9-0.9L132.1,10.8z"/>
	<path class="st0" d="M137.7,6.5c0.6-0.7,1.2-1.3,2-1.7c0.8-0.4,1.7-0.7,2.5-0.7c0.6,0,1.2,0.1,1.8,0.3c0.5,0.2,0.9,0.5,1.3,0.9
		c0.4,0.4,0.6,1,0.8,1.5c0.2,0.6,0.3,1.3,0.3,2v8h-1.2v-8c0.1-1-0.2-2-0.8-2.8c-0.6-0.7-1.5-1.1-2.5-1c-0.8,0-1.6,0.2-2.3,0.6
		c-0.7,0.4-1.4,1-1.9,1.7v9.4h-1.2V4.3h0.7c0.2,0,0.4,0.1,0.4,0.3c0,0,0,0,0,0L137.7,6.5z"/>
	<path class="st0" d="M152.9,17c-0.7,0.1-1.5-0.2-2-0.7c-0.5-0.6-0.8-1.4-0.7-2.2V5.6h-1.8c-0.1,0-0.2,0-0.2-0.1
		c-0.1-0.1-0.1-0.1-0.1-0.2V4.9l2.1-0.2l0.3-4.5c0-0.1,0-0.1,0.1-0.2c0.1-0.1,0.1-0.1,0.2-0.1h0.6v4.7h4v0.9h-4v8.5
		c0,0.3,0,0.6,0.1,0.9c0.1,0.5,0.5,0.8,0.9,1c0.2,0.1,0.4,0.1,0.7,0.1c0.3,0,0.5,0,0.8-0.1c0.2-0.1,0.4-0.2,0.6-0.3
		c0.1-0.1,0.3-0.2,0.4-0.3c0.1-0.1,0.1-0.1,0.2-0.1c0.1,0,0.2,0.1,0.2,0.1l0.3,0.5c-0.3,0.4-0.7,0.7-1.2,0.9
		C153.9,16.9,153.4,17,152.9,17z"/>
	<path class="st1" d="M14.1,27c0,0,0.1,0,0.1,0h7.4c0.5,0,0.9-0.4,0.9-0.9c0,0,0,0,0,0V5c0-0.5-0.4-0.9-0.9-0.9h-3.9
		c-0.5,0-0.9,0.4-0.9,0.9c0,0,0,0,0,0v8l-4-4.2L8.6,4.4C8.5,4.2,8.2,4.1,8,4.1H0.9C0.4,4.1,0,4.5,0,5c0,0,0,0,0,0v21.1
		C0,26.6,0.4,27,0.9,27c0,0,0,0,0,0h3.6c0.5,0,0.9-0.4,0.9-0.9c0,0,0,0,0,0v-8.2l5.5,5.7L14.1,27z M17,19.9c0.1,0.1,0.1,0.1,0,0.2
		c0,0-0.1,0-0.1,0h-1l-3.7-3.8h1.3c0,0,0.1,0,0.1,0l0.2,0.2l0,0l2,2.1l0,0L17,19.9z M12.4,8.8l4.1,4.2h-1.6l-4.1-4.2H12.4z M10,8.8
		h0.4l4.1,4.2h-1.6L8.8,8.8H10z M8.4,8.8l4.1,4.2h-1.6L6.8,8.7L8.4,8.8z M5.3,8.8h1.1l4.4,4.6v1.6L5.3,9.2V8.8z M5.3,9.7l5.5,5.7
		v0.9c0,0.1,0.1,0.1,0.1,0.1h0.8l3.7,3.8h-1.6l-8.6-8.9V9.7z M5.3,11.8l8.1,8.5h-1.6l-6.6-6.8V11.8z M5.3,13.8l6.2,6.4h-0.6
		c-0.1,0-0.1,0.1-0.1,0.1v0.8l-5.5-5.7V13.8z M5.3,15.9l5.5,5.7v1.6l-5.5-5.7V15.9z"/>
	<polygon class="st1" points="62.8,24.1 29.6,24.3 29.6,24 62.8,24 	"/>
	<path class="st1" d="M71.1,23.6c0-0.2,0-0.4,0.1-0.6c0-0.2-0.2-0.3-0.4-0.2c-1.2,0-2,3.5-0.8,3.5c0.4,0,0.7-0.3,0.9-0.6
		c0,0,0.1-0.1,0.1-0.1c0.1,0,0.1,0.1,0.1,0.1s-0.4,0.9-1.2,0.9c-2.1,0-1-4,0.9-4c0.2,0,0.3,0.1,0.4,0.2c0.1-0.4,0.3-0.7,0.5-0.7
		c0.1,0,0.1,0,0.1,0.1c0,0,0,0,0,0c-0.3,0.4-0.5,0.9-0.6,1.5C71.2,23.9,71.1,23.9,71.1,23.6z"/>
	<path class="st1" d="M72.8,26.2c0.6,0,1.3-1.5,1.3-3v-0.1c-0.3-0.2-0.5-0.4-0.6-0.8c0-0.1,0.1-0.3,0.3-0.3c0.2,0,0.4,0.4,0.5,0.9
		c0.1,0.1,0.3,0.2,0.5,0.2c0.1,0,0.2,0,0.2-0.1c0,0.1-0.1,0.3-0.3,0.3c0,0,0,0,0,0c-0.1,0-0.3,0-0.4-0.1c0,1.5-0.8,3.3-1.7,3.3
		c-1.7,0-0.8-3.7,0.5-3.7c0.1,0,0.2,0.1,0.2,0.2C72.4,22.9,71.8,26.2,72.8,26.2z"/>
	<path class="st1" d="M76.1,22.9c-0.4,2.5-0.3,5.9-1.6,5.9s0.6-3.1,0.8-3.5c0.1-0.8,0.2-1.6,0.3-2.4h-0.3c-0.3,0-0.3-0.4-0.2-0.4
		s0,0,0.2,0c0.1,0,0.3,0,0.4,0c0.3-1.3,0.8-2.3,1.7-2.3c0.2,0,0.1,0.2,0.1,0.2c-0.8,0-1.1,0.9-1.4,2.1c0.4,0,0.8-0.1,1.1-0.1
		c0.1,0,0.1,0.2-0.1,0.2C76.8,22.8,76.4,22.8,76.1,22.9z M75.2,25.8c-0.4,0.9-1.3,2.8-0.7,2.8S75.1,27.3,75.2,25.8L75.2,25.8z
		 M77.5,21.4c0-0.6,0.2-1.3,0.6-1.3c0.1,0,0.1,0.1,0.1,0.1c-0.3,0.4-0.4,0.8-0.5,1.3C77.7,21.6,77.6,21.6,77.5,21.4L77.5,21.4z"/>
	<path class="st1" d="M78.2,22.9c-0.4,2.5-0.3,5.9-1.6,5.9s0.6-3.1,0.8-3.5c0.1-0.8,0.2-1.6,0.3-2.4h-0.4c-0.3,0-0.3-0.4-0.2-0.4
		s0,0,0.2,0c0.1,0,0.3,0,0.4,0c0.3-1.3,0.8-2.3,1.7-2.3c0.2,0,0.1,0.2,0.1,0.2c-0.8,0-1.1,0.9-1.4,2.1c0.4,0,0.8-0.1,1.1-0.1
		c0.1,0,0.1,0.2-0.1,0.2C78.9,22.8,78.6,22.8,78.2,22.9z M77.4,25.8c-0.4,0.9-1.3,2.8-0.7,2.8S77.2,27.3,77.4,25.8L77.4,25.8z
		 M79.7,21.4c0-0.6,0.2-1.3,0.6-1.3c0.1,0,0.1,0.1,0.1,0.1c-0.3,0.4-0.4,0.8-0.5,1.3C79.9,21.6,79.7,21.6,79.7,21.4L79.7,21.4z"/>
	<path class="st1" d="M81.1,22.8c-1.2,0-2.1,3.6-0.8,3.6c0.6,0,0.9-0.6,0.9-0.6s0-0.1,0.1-0.1s0.1,0.1,0.1,0.1s-0.4,0.9-1.2,0.9
		c-2.1,0-1-4,0.9-4c1.1,0,0.5,2.2-0.9,2.2c-0.3,0-0.3-0.1-0.3-0.1C81.1,24.7,81.8,22.8,81.1,22.8z"/>
	<path class="st1" d="M84.1,22.8c-1.2,0-2.1,3.6-0.8,3.6c0.6,0,0.9-0.6,0.9-0.6c0,0,0.1-0.1,0.1-0.1c0.1,0,0.1,0.1,0.1,0.1
		s-0.4,0.9-1.2,0.9c-2.1,0-1-4,0.9-4c1.1,0,0.5,2.2-0.9,2.2c-0.3,0-0.3-0.1-0.3-0.1C84,24.7,84.8,22.8,84.1,22.8z"/>
	<path class="st1" d="M91.5,26.9c-0.7,0-1.3-0.3-1.8-0.8c-0.4,0.3-0.8,0.4-1.3,0.4c-0.7,0-1.4-0.4-1.4-1.1s0.5-1.2,1.1-1.8
		c-0.4-1.3-0.1-2.4,1.1-2.4c0.2,0,0.2,0.2,0.2,0.2c-0.9,0-1.1,0.8-0.9,1.8c0.9-0.6,1.5-1.5,1.6-2.6c0.2,0,0.3,0.2,0.3,0.4
		c0,1.1-0.9,1.8-1.7,2.5c0.2,0.8,0.6,1.5,1.1,2.1c0.8-0.9,0.8-2.5,0.2-2.5c0-0.1,0.1-0.2,0.3-0.2c0.6,0,0.6,1.8-0.3,2.9
		c0.4,0.5,1,0.8,1.6,0.8c0.7,0,0.7-0.5,0.6-0.5c0-0.1,0.1-0.2,0.2-0.2C92.8,26,92.6,26.9,91.5,26.9z M89.5,26c-0.6-0.6-1-1.3-1.3-2
		c-0.5,0.4-0.8,0.9-0.9,1.5c0,0.5,0.5,0.9,1,0.9c0,0,0,0,0,0C88.8,26.4,89.2,26.3,89.5,26L89.5,26z"/>
	<path class="st1" d="M97.3,24.5h-0.1c-0.5,0.9-1.2,1.9-1.6,1.9c-1.4,0-0.4-3.8,1.3-3.8c0.2,0,0.4,0.1,0.5,0.3c0,0,0,0.1-0.1,0.1
		c-0.1,0-0.1,0-0.1-0.1c0-0.1-0.1-0.2-0.2-0.2c-1,0-1.7,3.3-1.2,3.3s1.8-2.6,1.8-2.7c0.4-1.6,1-3,1.4-3c0.1,0,0.1,0,0.1,0.1
		c0,0,0,0,0,0c-0.8,1.8-1.3,3.7-1.3,5.6c0,0.6,0.1,1.2,0.5,1.2s0.5-0.3,0.6-0.5s0.2-0.1,0.2,0s-0.3,0.8-0.8,0.8
		c-0.7,0-0.9-0.8-0.9-1.8C97.2,25.3,97.2,24.9,97.3,24.5z"/>
	<path class="st1" d="M100.7,22.8c-1.2,0-2.1,3.6-0.8,3.6c0.6,0,0.9-0.6,0.9-0.6s0-0.1,0.1-0.1s0.1,0.1,0.1,0.1s-0.4,0.9-1.2,0.9
		c-2.1,0-1-4,0.9-4c1.1,0,0.5,2.2-0.9,2.2c-0.3,0-0.3-0.1-0.3-0.1C100.6,24.7,101.3,22.8,100.7,22.8z"/>
	<path class="st1" d="M103.4,24.8c0-0.8-0.3-1.5-0.3-2.1c0-0.1,0-0.1,0-0.2c-0.4,0.6-0.8,1.6-1.4,2.6c-0.1,0.1-0.2,0-0.2-0.1
		c1-1.5,1.6-3.3,2.3-3.3c0.1,0,0.2,0.1,0.2,0.1c0,0.3-0.6,0.5-0.6,1.2s0.4,1.6,0.4,2.4c0.1,0.8-0.5,1.5-1.2,1.6
		c-1.3,0-0.5-2.4,0.4-2.9c0.1-0.1,0.1,0.1,0.1,0.2c-0.7,0.4-1.3,2.5-0.6,2.5C102.9,26.7,103.4,25.9,103.4,24.8z"/>
	<path class="st1" d="M106.3,24.8c0-0.8-0.3-1.5-0.3-2.1c0-0.1,0-0.1,0-0.2c-0.4,0.6-0.8,1.6-1.4,2.6c-0.1,0.1-0.2,0-0.2-0.1
		c1-1.5,1.6-3.3,2.3-3.3c0.1,0,0.2,0.1,0.2,0.1c0,0.3-0.6,0.5-0.6,1.2s0.4,1.6,0.4,2.4c0.1,0.8-0.5,1.5-1.2,1.6
		c-1.3,0-0.5-2.4,0.4-2.9c0.1-0.1,0.1,0.1,0.1,0.2c-0.7,0.4-1.3,2.5-0.6,2.5C105.8,26.7,106.3,25.9,106.3,24.8z"/>
	<path class="st1" d="M109.3,22.8c-1.2,0-2.1,3.6-0.8,3.6c0.6,0,0.9-0.6,0.9-0.6s0-0.1,0.1-0.1s0.1,0.1,0.1,0.1s-0.4,0.9-1.2,0.9
		c-2.1,0-1-4,0.9-4c1.1,0,0.5,2.2-0.9,2.2c-0.3,0-0.3-0.1-0.3-0.1C109.2,24.7,110.1,22.8,109.3,22.8z"/>
	<path class="st1" d="M113.4,22.5c-0.3,0.4-0.5,1-0.5,1.6v0.1c-0.4,0-0.4-0.8-0.2-1.3c-0.9,1-1.5,2.1-1.8,3.4c0,0.1-0.1,0.1-0.1,0.1
		c-0.2,0-0.2-0.2-0.2-0.6c0-1.5,0.3-3,0.8-3c0.1,0,0.1,0.1,0.1,0.2c-0.2,0.8-0.4,1.5-0.5,2.3h0c0.5-1.1,1.4-2.8,2.2-2.8
		C113.3,22.3,113.4,22.4,113.4,22.5z"/>
	<path class="st1" d="M114.6,22.9c-0.3,1-0.6,2.1-0.6,3.2c0,0.6,0.1,1.2,0.5,1.2s0.5-0.3,0.6-0.5s0.2-0.1,0.2,0s-0.3,0.8-0.8,0.8
		c-0.6,0-0.9-0.6-0.9-1.6c0-1,0.2-2,0.5-2.9c-0.1,0-0.2,0-0.3,0c-0.4,0-0.3-0.4-0.2-0.4s0,0.1,0.2,0.1h0.4c0.2-0.6,0.5-1,0.7-1
		s0.1,0,0.1,0.1s-0.1,0.3-0.3,0.8c0.4,0,0.8-0.1,1-0.1s0.1,0.2-0.1,0.2S115,22.8,114.6,22.9z"/>
	<path class="st1" d="M117.1,24.8c0-0.8-0.3-1.5-0.3-2.1c0-0.1,0-0.1,0-0.2c-0.4,0.6-0.8,1.6-1.4,2.6c0,0.1-0.2,0-0.2-0.1
		c1-1.5,1.6-3.3,2.3-3.3c0.1,0,0.2,0.1,0.2,0.1c0,0.3-0.5,0.5-0.5,1.2s0.5,1.6,0.5,2.4c0.1,0.8-0.5,1.5-1.3,1.6
		c-1.3,0-0.5-2.4,0.4-2.9c0.1-0.1,0.1,0.1,0.1,0.2c-0.7,0.4-1.3,2.5-0.6,2.5C116.5,26.7,117.1,25.9,117.1,24.8z"/>
	<polygon class="st1" points="122.5,24.1 155.6,24 155.6,24.3 122.5,24.3 	"/>
</g>
</svg>
