<?xml version="1.0" encoding="utf-8"?>
<!-- Generator: Adobe Illustrator 23.0.1, SVG Export Plug-In . SVG Version: 6.00 Build 0)  -->
<svg version="1.1" id="Capa_1" xmlns="http://www.w3.org/2000/svg" xmlns:xlink="http://www.w3.org/1999/xlink" x="0px" y="0px"
	 viewBox="0 0 341.3 341.3" style="enable-background:new 0 0 341.3 341.3;" xml:space="preserve">
<style type="text/css">
	.st0{fill:#BD9E57;}
</style>
<g>
	<g>
		<g>
			<path class="st0" d="M45.6,286.9c0.4,0.4,0.8,0.7,1.3,0.9c32.1,34.1,76.9,53.5,123.8,53.5s91.7-19.4,123.8-53.6
				c0.4-0.2,0.8-0.5,1.2-0.9c0.3-0.4,0.5-0.8,0.7-1.2c59.9-65,59.9-165,0-230l0,0c-0.2-0.4-0.5-0.9-0.7-1.2c-0.4-0.4-0.8-0.7-1.3-1
				C262.3,19.3,217.5,0,170.6,0S79,19.3,46.9,53.5c-0.5,0.3-0.9,0.6-1.3,1c-0.3,0.4-0.5,0.8-0.7,1.2c-59.9,65-59.9,165,0,230
				C45.1,286.1,45.4,286.5,45.6,286.9z M217.2,317c13.1-15.8,23-34.1,29.1-53.8v0c10.7,5,20.8,11.2,30.1,18.6
				C259.6,297.8,239.3,309.9,217.2,317z M288.2,269.3c-11.4-9.1-23.8-16.8-37.1-22.7c5.5-22.1,8.5-44.7,8.9-67.4h63.8
				C322,212.3,309.5,244,288.2,269.3z M323.8,162.1H260c-0.5-22.7-3.4-45.3-8.9-67.4c13.3-6,25.7-13.6,37.1-22.7
				C309.5,97.4,322,129,323.8,162.1z M276.4,59.5c-9.3,7.3-19.4,13.5-30.1,18.6c-6.1-19.7-15.9-37.9-29.1-53.8
				C239.3,31.4,259.6,43.5,276.4,59.5z M179.2,18.2c20.9,5.5,39.4,30.6,51.1,66.2c-16.5,5.7-33.7,9-51.1,9.7V18.2z M179.2,111.3
				c19-0.7,37.8-4.2,55.8-10.2c4.8,20,7.5,40.5,8,61.1h-63.8V111.3z M179.2,179.2H243c-0.5,20.6-3.2,41.1-8,61.1
				c-18-6.1-36.8-9.5-55.8-10.2V179.2z M179.2,247.1c17.4,0.8,34.6,4,51.1,9.7c-11.7,35.6-30.2,60.7-51.1,66.2V247.1z M64.9,281.7
				c9.3-7.3,19.4-13.5,30.1-18.5v0c6.1,19.7,15.9,37.9,29.1,53.8C101.9,309.8,81.7,297.8,64.9,281.7z M162.1,323.1
				c-20.9-5.5-39.4-30.6-51.1-66.2c16.5-5.7,33.7-9,51.1-9.7L162.1,323.1L162.1,323.1z M162.1,230c-19,0.7-37.8,4.2-55.8,10.2
				c-4.8-20-7.5-40.5-8-61.1h63.8V230z M162.1,162.1H98.3c0.5-20.6,3.2-41.1,8-61.1c18,6.1,36.8,9.5,55.8,10.2V162.1z M162.1,18.2
				v76c-17.4-0.8-34.6-4-51.1-9.7C122.7,48.9,141.2,23.7,162.1,18.2z M124.1,24.3C111,40.1,101.1,58.4,95,78.1v0
				c-10.7-5-20.8-11.2-30.1-18.6C81.7,43.4,101.9,31.4,124.1,24.3z M53.1,72c11.4,9.1,23.8,16.8,37.1,22.7
				c-5.5,22.1-8.5,44.7-8.9,67.4H17.5C19.2,129,31.7,97.3,53.1,72z M81.3,179.2c0.4,22.7,3.4,45.3,8.9,67.4
				c-13.3,6-25.7,13.6-37.1,22.7c-21.3-25.4-33.9-57-35.6-90.1L81.3,179.2L81.3,179.2z"/>
		</g>
	</g>
</g>
</svg>
