<?xml version="1.0" encoding="utf-8"?>
<!-- Generator: Adobe Illustrator 23.0.1, SVG Export Plug-In . SVG Version: 6.00 Build 0)  -->
<svg version="1.1" id="Warstwa_1" xmlns="http://www.w3.org/2000/svg" xmlns:xlink="http://www.w3.org/1999/xlink" x="0px"
     y="0px"
     viewBox="0 0 428.1 85" style="enable-background:new 0 0 428.1 85;" xml:space="preserve">
<g>
	<g>
		<path d="M116.5,64.3c-0.3-0.3-0.4-0.6-0.4-1.1v-41c0-0.5,0.1-0.8,0.4-1.1c0.3-0.3,0.6-0.4,1.1-0.4H145
			c0.5,0,0.8,0.1,1.1,0.4s0.4,0.7,0.4,1.1v4.5c0,0.4-0.1,0.8-0.4,1.1c-0.3,0.3-0.7,0.4-1.1,0.4h-20.1V40h18.9c0.5,0,0.8,0.1,1.1,0.4
			c0.3,0.3,0.4,0.7,0.4,1.1V46c0,0.4-0.1,0.8-0.4,1.1c-0.3,0.3-0.7,0.4-1.1,0.4h-18.9V63c0,0.4-0.1,0.8-0.4,1.1
			c-0.3,0.3-0.7,0.4-1.1,0.4h-5.7C117.2,64.7,116.8,64.6,116.5,64.3z"/>
        <path d="M155.7,61.6c-2.2-2.5-3.3-6-3.3-10.4V33.5c0-0.5,0.1-0.8,0.4-1.1c0.3-0.3,0.6-0.4,1.1-0.4h5.7
			c0.4,0,0.8,0.1,1.1,0.4c0.3,0.3,0.4,0.7,0.4,1.1v17.3c0,5.2,2.2,7.7,6.7,7.7c2.2,0,3.9-0.7,5.2-2.1c1.3-1.4,1.9-3.3,1.9-5.7V33.5
			c0-0.5,0.1-0.8,0.4-1.1c0.3-0.3,0.6-0.4,1.1-0.4h5.6c0.5,0,0.8,0.1,1.1,0.4c0.3,0.3,0.4,0.6,0.4,1.1v29.7c0,0.4-0.1,0.8-0.4,1.1
			c-0.3,0.3-0.6,0.4-1.1,0.4h-5.2c-0.4,0-0.8-0.1-1.1-0.4s-0.4-0.6-0.4-1.1v-2.6c-2.3,3.1-5.8,4.7-10.4,4.7
			C161,65.4,158,64.1,155.7,61.6z"/>
        <path d="M198.1,61.7c-1.9-2-2.9-4.9-2.9-8.8V38.7h-5c-0.4,0-0.8-0.1-1.1-0.4c-0.3-0.3-0.4-0.6-0.4-1.1v-3.7
			c0-0.4,0.1-0.8,0.4-1.1c0.3-0.3,0.6-0.4,1.1-0.4h5V21.6c0-0.5,0.1-0.8,0.4-1.1c0.3-0.3,0.6-0.4,1.1-0.4h5.2c0.5,0,0.8,0.1,1.1,0.4
			s0.4,0.6,0.4,1.1V32h7.9c0.4,0,0.8,0.1,1.1,0.4c0.3,0.3,0.4,0.7,0.4,1.1v3.7c0,0.4-0.1,0.8-0.4,1.1c-0.3,0.3-0.7,0.4-1.1,0.4h-7.9
			v13.5c0,1.8,0.3,3.2,0.9,4.1c0.6,0.9,1.7,1.4,3.1,1.4h4.4c0.5,0,0.8,0.1,1.1,0.4c0.3,0.3,0.4,0.6,0.4,1.1v4c0,0.4-0.1,0.8-0.4,1.1
			c-0.3,0.3-0.6,0.4-1.1,0.4h-5.2C202.9,64.7,200,63.7,198.1,61.7z"/>
        <path d="M222,61.6c-2.2-2.5-3.3-6-3.3-10.4V33.5c0-0.5,0.1-0.8,0.4-1.1c0.3-0.3,0.6-0.4,1.1-0.4h5.7
			c0.4,0,0.8,0.1,1.1,0.4c0.3,0.3,0.4,0.7,0.4,1.1v17.3c0,5.2,2.2,7.7,6.7,7.7c2.2,0,3.9-0.7,5.2-2.1c1.3-1.4,1.9-3.3,1.9-5.7V33.5
			c0-0.5,0.1-0.8,0.4-1.1c0.3-0.3,0.6-0.4,1.1-0.4h5.6c0.5,0,0.8,0.1,1.1,0.4c0.3,0.3,0.4,0.6,0.4,1.1v29.7c0,0.4-0.1,0.8-0.4,1.1
			c-0.3,0.3-0.6,0.4-1.1,0.4h-5.2c-0.4,0-0.8-0.1-1.1-0.4s-0.4-0.6-0.4-1.1v-2.6c-2.3,3.1-5.8,4.7-10.4,4.7
			C227.3,65.4,224.2,64.1,222,61.6z"/>
        <path d="M258.6,64.3c-0.3-0.3-0.4-0.6-0.4-1.1V33.6c0-0.5,0.1-0.8,0.4-1.1s0.6-0.4,1.1-0.4h5.2c0.5,0,0.8,0.1,1.1,0.4
			c0.3,0.3,0.4,0.7,0.4,1.1v2.6c2.1-2.8,5.1-4.2,9.1-4.2h2.6c0.5,0,0.8,0.1,1.1,0.4c0.3,0.3,0.4,0.6,0.4,1.1v4.6
			c0,0.4-0.1,0.8-0.4,1.1s-0.6,0.4-1.1,0.4h-5c-2,0-3.5,0.6-4.7,1.7c-1.1,1.1-1.7,2.7-1.7,4.7v17.2c0,0.4-0.1,0.8-0.4,1.1
			s-0.7,0.4-1.1,0.4h-5.6C259.2,64.7,258.9,64.6,258.6,64.3z"/>
        <path d="M287.1,61.6c-2.7-2.5-4.1-6-4.3-10.4l-0.1-2.8l0.1-2.8c0.2-4.4,1.7-7.9,4.4-10.4c2.7-2.5,6.5-3.8,11.4-3.8
			c4.8,0,8.6,1.3,11.3,3.8c2.7,2.5,4.2,6,4.4,10.4c0,0.5,0.1,1.4,0.1,2.8c0,1.3,0,2.3-0.1,2.8c-0.2,4.4-1.7,7.9-4.3,10.4
			c-2.7,2.5-6.5,3.8-11.4,3.8C293.6,65.4,289.8,64.1,287.1,61.6z M303.7,56.9c1.2-1.4,1.8-3.4,1.9-6.1c0-0.4,0.1-1.2,0.1-2.5
			c0-1.2,0-2-0.1-2.5c-0.1-2.7-0.7-4.7-2-6.1c-1.2-1.4-2.9-2.1-5.1-2.1s-3.9,0.7-5.2,2.1c-1.2,1.4-1.9,3.5-2,6.1l-0.1,2.5l0.1,2.5
			c0.1,2.7,0.7,4.7,2,6.1c1.2,1.4,2.9,2.1,5.2,2.1C300.8,59,302.5,58.3,303.7,56.9z"/>
        <path d="M322.6,64.3c-0.3-0.3-0.4-0.6-0.4-1.1v-41c0-0.5,0.1-0.8,0.4-1.1c0.3-0.3,0.6-0.4,1.1-0.4h16.9
			c5.1,0,9.1,1.2,12,3.6s4.3,5.9,4.3,10.4s-1.4,8-4.3,10.3s-6.9,3.5-12,3.5h-9.3v14.7c0,0.5-0.1,0.8-0.4,1.1
			c-0.3,0.3-0.7,0.4-1.1,0.4h-6C323.2,64.7,322.9,64.6,322.6,64.3z M340.2,41.4c2.4,0,4.3-0.6,5.6-1.7c1.3-1.2,1.9-2.8,1.9-5.1
			c0-2.2-0.6-3.9-1.9-5.1c-1.2-1.2-3.1-1.8-5.6-1.8h-9.1v13.7H340.2z"/>
        <path d="M365.8,64.1c-1.8-0.9-3.2-2-4.2-3.5s-1.5-3.1-1.5-4.8c0-2.9,1.2-5.2,3.5-6.9c2.3-1.8,5.5-3,9.5-3.6l8.6-1.3
			v-1.3c0-1.8-0.5-3.2-1.4-4.1c-0.9-0.9-2.4-1.4-4.4-1.4c-1.4,0-2.5,0.3-3.3,0.8s-1.5,1-2,1.5s-0.9,0.9-1,1
			c-0.2,0.5-0.5,0.8-0.9,0.8h-4.9c-0.4,0-0.7-0.1-1-0.4c-0.3-0.3-0.4-0.6-0.4-1c0-1,0.6-2.2,1.5-3.6c1-1.3,2.5-2.5,4.6-3.5
			c2.1-1,4.6-1.5,7.6-1.5c5,0,8.6,1.1,10.8,3.3c2.3,2.2,3.4,5.1,3.4,8.7v19.8c0,0.4-0.1,0.8-0.4,1.1s-0.6,0.4-1.1,0.4h-5.2
			c-0.4,0-0.8-0.1-1.1-0.4c-0.3-0.3-0.4-0.6-0.4-1.1v-2.5c-0.9,1.3-2.2,2.4-3.9,3.3c-1.7,0.9-3.8,1.3-6.3,1.3
			C369.6,65.4,367.6,64.9,365.8,64.1z M379.5,57.1c1.5-1.5,2.2-3.7,2.2-6.5v-1.3l-6.3,1c-4.8,0.8-7.2,2.4-7.2,4.8
			c0,1.3,0.6,2.4,1.7,3.1c1.1,0.7,2.4,1.1,4,1.1C376.2,59.3,378.1,58.6,379.5,57.1z"/>
        <path d="M402.3,76.3c-0.3-0.3-0.4-0.5-0.4-0.9c0-0.3,0.1-0.6,0.3-1l5-11.6l-12.1-28.5c-0.2-0.4-0.3-0.7-0.3-0.9
			c0-0.4,0.2-0.7,0.4-1c0.3-0.3,0.6-0.4,0.9-0.4h5.2c0.8,0,1.3,0.4,1.6,1.2l8.4,20.5l8.5-20.5c0.4-0.8,1-1.2,1.8-1.2h5.1
			c0.4,0,0.7,0.1,0.9,0.4c0.3,0.3,0.4,0.5,0.4,0.9c0,0.3-0.1,0.6-0.3,1L410,75.5c-0.3,0.8-0.9,1.2-1.8,1.2h-5
			C402.9,76.7,402.6,76.6,402.3,76.3z"/>
	</g>
    <g>
		<path d="M33.4,33.9c-2,2.2-3.1,5.1-3.4,8.6C30.3,38.6,31.4,36,33.4,33.9z"/>
        <path d="M42.5,0C19.1,0,0,19.1,0,42.5S19.1,85,42.5,85S85,65.9,85,42.5S65.9,0,42.5,0z M42.5,77.3
			c-7.6,0-14.6-2.5-20.3-6.6v-9.1c5.1,5.5,12.4,9,20.5,9c15.5,0,28.1-12.6,28.1-28.1S58.2,14.4,42.7,14.4S14.6,27,14.6,42.5v20.8
			c-4.3-5.8-6.9-13-6.9-20.8c0-19.2,15.6-34.8,34.8-34.8s34.8,15.6,34.8,34.8S61.7,77.3,42.5,77.3z M50,45.2H37.7v-1
			c0-2.6,0.5-4.3,1.7-5.4c1.8-1.8,4.4-2.8,7.2-2.8H62c0.7,2,1.1,4.2,1.1,6.5c0,11.2-9.1,20.4-20.4,20.4c-1.7,0-3.4-0.2-5-0.6v-9.4
			H50c2.1,0,3.9-1.7,3.9-3.8S52.1,45.2,50,45.2z M46.5,28.2c-4.8,0-9.4,1.9-12.7,5.1c-0.2,0.2-0.3,0.3-0.5,0.5
			c-0.1,0.1-0.2,0.3-0.4,0.4c-1.7,2-2.6,4.3-2.9,7.5c0,0.2,0,0.4-0.1,0.7c0,0.2,0,0.5,0,0.8s0,0.6,0,0.9v14.2
			c-4.7-3.7-7.7-9.5-7.7-15.9c0-11.2,9.1-20.4,20.4-20.4c5.7,0,10.9,2.4,14.6,6.1L46.5,28.2L46.5,28.2z"/>
	</g>
</g>
</svg>
